<?xml version="1.0" encoding="UTF-8"?>
<svg id="Layer_2" xmlns="http://www.w3.org/2000/svg" xmlns:xlink="http://www.w3.org/1999/xlink" viewBox="0 0 813.49 200.72">
  <defs>
    <style>
      .cls-1 {
        clip-path: url(#clippath-4);
      }

      .cls-2 {
        fill: url(#linear-gradient-2);
      }

      .cls-3 {
        fill: none;
      }

      .cls-4 {
        fill: url(#linear-gradient-4);
      }

      .cls-5 {
        fill: url(#linear-gradient-3);
      }

      .cls-6 {
        clip-path: url(#clippath-1);
      }

      .cls-7 {
        fill: url(#linear-gradient-5);
      }

      .cls-8 {
        clip-path: url(#clippath-3);
      }

      .cls-9 {
        clip-path: url(#clippath-2);
      }

      .cls-10 {
        fill: url(#linear-gradient);
      }

      .cls-11 {
        clip-path: url(#clippath);
      }
    </style>
    <clipPath id="clippath">
      <path class="cls-3" d="M44.48,91.26c-7.79,10.5-10.1,24.23-5.97,36.64,6.8,20.44,26.92,49.63,85.92,59.94,0,0-113.16-44.92-49.47-110.32,0,0,35.83-43.79,178.56-51.18,0,0-7.33-.51-19.36-.51-42.96,0-145.94,6.45-189.67,65.43"/>
    </clipPath>
    <linearGradient id="linear-gradient" x1="-133.24" y1="640.36" x2="-132.24" y2="640.36" gradientTransform="translate(28953.13 139077.24) scale(217.02 -217.02)" gradientUnits="userSpaceOnUse">
      <stop offset="0" stop-color="#d79617"/>
      <stop offset="0" stop-color="#b46a11"/>
      <stop offset=".32" stop-color="#d68d15"/>
      <stop offset=".68" stop-color="#e7ac18"/>
      <stop offset="1" stop-color="#f8c73d"/>
    </linearGradient>
    <clipPath id="clippath-1">
      <path class="cls-3" d="M238.46,100.4c0-12.23,7.12-22.75,19.46-22.75,9.14,0,14.57,5.85,14.57,14.46,0,12.23-7.12,22.75-19.46,22.75-9.14,0-14.57-5.85-14.57-14.46M213.16,101.88c0,19.57,14.57,33.28,37.74,33.28,27.33,0,46.89-18.29,46.89-44.55,0-19.57-14.57-33.28-37.74-33.28-27.32,0-46.89,18.29-46.89,44.55"/>
    </clipPath>
    <linearGradient id="linear-gradient-2" x1="-133.28" y1="640.44" x2="-132.28" y2="640.44" gradientTransform="translate(11493.21 54298.68) scale(84.63 -84.63)" xlink:href="#linear-gradient"/>
    <clipPath id="clippath-2">
      <polygon class="cls-3" points="314.06 59.04 299.18 133.46 357.87 133.46 361.8 114.01 328.2 114.01 339.16 59.04 314.06 59.04"/>
    </clipPath>
    <linearGradient id="linear-gradient-3" x1="-133.29" y1="640.47" x2="-132.29" y2="640.47" gradientTransform="translate(8646.39 40204.86) scale(62.62 -62.62)" xlink:href="#linear-gradient"/>
    <clipPath id="clippath-3">
      <path class="cls-3" d="M400.83,78.6h9.57c10.1,0,15.52,4.89,15.52,13.5,0,12.23-7.12,21.8-20.41,21.8h-11.7l7.02-35.3ZM379.67,59.04l-14.89,74.43h39.87c27.11,0,46.57-16.59,46.57-42.85,0-19.57-14.46-31.58-37.96-31.58h-33.6Z"/>
    </clipPath>
    <linearGradient id="linear-gradient-4" x1="-133.28" y1="640.44" x2="-132.28" y2="640.44" gradientTransform="translate(11885.65 55455.89) scale(86.44 -86.44)" xlink:href="#linear-gradient"/>
    <clipPath id="clippath-4">
      <path class="cls-3" d="M131.7,83.52c-.07.13-.12.27-.18.4.07-.13.14-.26.21-.38,7.65-13.97,24.09-22.28,40.33-22.67,3.27-.08,3.48,4.77.23,5.07-6.29.58-12.38,1.92-17.93,4.41-6.6,2.96-11.83,8.3-14.93,14.83-2.19,4.61-4.23,10.07-5.79,15.11-4.03,13.03,2.36,27.25,14.99,32.41,19.74,8.08,47.67-1.65,58.37-26.17-7.84,14.79-25.63,23.47-42.83,23.09-2.2-.05-2.19-3.33,0-3.42,7.63-.32,13.57-1.64,18.41-3.57,7.2-2.88,12.86-8.65,15.79-15.83,1.7-4.15,3.27-8.99,5.27-14.67h-33.19l-3.77,10.93h13.42c-2.95,8.18-6.12,9.99-16.05,9.99-15.88,0-13.16-4.17-7.2-21.15,3.46-9.52,5.12-12.98,19.14-12.98,5.84,0,12.17-.07,10.48,5.9h19.75c6.01-17.27-11.21-29.63-31.21-29.63-16.22,0-34.27,8.12-43.28,28.34"/>
    </clipPath>
    <linearGradient id="linear-gradient-5" x1="-133.28" y1="640.41" x2="-132.28" y2="640.41" gradientTransform="translate(10247.32 48702.93) scale(75.9 -75.9)" xlink:href="#linear-gradient"/>
  </defs>
  <g id="Layer_1-2" data-name="Layer_1">
    <g>
      <g>
        <g class="cls-11">
          <rect class="cls-10" x="11.27" y="25.83" width="242.25" height="162"/>
        </g>
        <path d="M104.87,200.72S-30.08,147.14,45.87,69.15c0,0,42.73-52.22,212.94-61.03,0,0-182.53-12.61-249.29,77.43C.24,98.07-2.52,114.44,2.4,129.24c8.11,24.38,32.11,59.19,102.47,71.48"/>
        <path d="M246.53,31.53s8.88-3.8,13-.63c4.12,3.17,14.27,7.29,16.81-1.27,2.54-8.56-4.76-16.81-14.27-12.05-8.96,4.48-21.3-11.3-5.74-17.12,2.79-1.04,6.03-.28,7.76,2.14.56.79,1,1.75,1.15,2.93.66,5.13,15.22,2.54,16.17,3.17.95.63,20.93,12.68,2.22,29.81,0,0-14.9,9.2-23.15.63-8.24-8.56-13.95-7.61-13.95-7.61"/>
      </g>
      <path d="M145.96,172.59h-7.43l-2.37,4.62h-3.63l10.72-19.85h3.03l3.85,19.85h-3.38l-.78-4.62ZM139.94,169.81h5.56l-1.35-8.21-4.21,8.21Z"/>
      <path d="M181.94,177.21l3.45-19.85h6.1c2.15.02,3.76.49,4.83,1.41,1.08.92,1.55,2.2,1.43,3.84-.16,1.93-1.34,3.38-3.53,4.35.82.29,1.45.82,1.89,1.6.45.77.64,1.69.57,2.77-.13,1.82-.86,3.25-2.19,4.31-1.33,1.05-3.09,1.58-5.27,1.58h-7.28ZM186.86,168.26l-1.08,6.2h3.53c1.06.01,1.97-.27,2.71-.83.75-.56,1.19-1.34,1.32-2.32.13-.94-.01-1.67-.42-2.19-.41-.53-1.09-.81-2.03-.85h-4.04ZM187.3,165.72h3.09c1.11.01,2.01-.25,2.71-.78.7-.53,1.11-1.24,1.24-2.14.23-1.7-.63-2.58-2.58-2.64h-3.5s-.97,5.56-.97,5.56Z"/>
      <path d="M239.6,172c.2-1.31-.51-2.28-2.14-2.92l-1.1-.41c-2.05-.72-3.51-1.57-4.38-2.55s-1.25-2.12-1.17-3.42c.07-1.13.46-2.12,1.15-2.98.7-.86,1.61-1.52,2.75-1.98,1.14-.46,2.35-.68,3.63-.65,1.24.03,2.34.3,3.3.81.96.51,1.7,1.23,2.21,2.14.51.91.75,1.96.71,3.13h-3.36c.06-1.05-.17-1.85-.69-2.43-.52-.57-1.31-.87-2.37-.9-1.06-.02-1.96.23-2.69.75-.73.52-1.16,1.22-1.29,2.1-.18,1.15.59,2.06,2.32,2.73l1.02.37c2.08.74,3.54,1.62,4.36,2.62.83,1,1.19,2.19,1.09,3.57-.09,1.12-.46,2.09-1.1,2.92-.65.83-1.54,1.48-2.68,1.93-1.14.45-2.4.67-3.77.65-1.3,0-2.48-.28-3.54-.82-1.06-.54-1.87-1.28-2.43-2.23-.56-.95-.82-2.03-.78-3.24h3.37c-.07,1.14.21,2.01.83,2.62.63.61,1.53.92,2.7.94,1.09.02,2-.21,2.73-.7.73-.48,1.17-1.17,1.32-2.06"/>
      <path d="M290.32,170.74c-.34,2.07-1.27,3.72-2.8,4.96s-3.39,1.83-5.58,1.79c-1.26-.03-2.37-.33-3.32-.9-.95-.57-1.69-1.41-2.23-2.5-.54-1.1-.84-2.33-.9-3.71-.05-1.04.07-2.45.38-4.23.31-1.79.9-3.39,1.78-4.81.88-1.42,1.95-2.49,3.23-3.2,1.28-.72,2.7-1.06,4.26-1.04,1.97.04,3.53.66,4.68,1.86,1.15,1.2,1.76,2.86,1.83,4.98h-3.34c-.04-1.42-.34-2.44-.89-3.07-.55-.63-1.37-.96-2.45-.99-1.48-.05-2.72.49-3.72,1.59-1,1.11-1.67,2.72-2.02,4.84l-.27,1.81-.12,1.39c-.07.93,0,1.82.2,2.64.2.82.57,1.45,1.08,1.88.52.43,1.18.66,1.98.69,2.54.1,4.16-1.21,4.88-3.94l3.33-.03Z"/>
      <polygon points="337.16 177.21 333.81 177.21 335.34 168.4 326.75 168.4 325.22 177.21 321.85 177.21 325.3 157.36 328.67 157.36 327.23 165.62 335.82 165.62 337.25 157.36 340.61 157.36 337.16 177.21"/>
      <polygon points="374.54 174.46 383.29 174.46 382.8 177.21 370.69 177.21 374.14 157.36 377.51 157.36 374.54 174.46"/>
      <polygon points="427.76 168.35 419.86 168.35 418.79 174.46 428.04 174.46 427.56 177.21 414.95 177.21 418.39 157.36 430.91 157.36 430.42 160.14 421.28 160.14 420.32 165.62 428.24 165.62 427.76 168.35"/>
      <path d="M464.51,169.85l-1.28,7.36h-3.37l3.45-19.85h6.87c2.07.01,3.7.58,4.88,1.71,1.18,1.13,1.7,2.63,1.54,4.5-.16,1.93-.95,3.46-2.36,4.59-1.41,1.13-3.26,1.7-5.54,1.7h-4.2ZM464.99,167.07l3.86.03c1.22,0,2.22-.31,2.99-.93.78-.62,1.24-1.48,1.4-2.59.13-1.01-.06-1.82-.57-2.43-.5-.61-1.26-.94-2.28-.99h-4.2s-1.2,6.91-1.2,6.91Z"/>
      <path d="M511.42,169.85l-1.28,7.36h-3.37l3.45-19.85h6.87c2.07.01,3.7.58,4.88,1.71,1.18,1.13,1.7,2.63,1.54,4.5-.16,1.93-.95,3.46-2.36,4.59-1.41,1.13-3.26,1.7-5.54,1.7h-4.2ZM511.9,167.07l3.86.03c1.22,0,2.22-.31,2.99-.93.78-.62,1.24-1.48,1.4-2.59.13-1.01-.06-1.82-.57-2.43-.5-.61-1.26-.94-2.28-.99h-4.2s-1.2,6.91-1.2,6.91Z"/>
      <path d="M553.69,177.21l3.44-19.85h5.37c1.65.01,3.08.42,4.28,1.25,1.2.82,2.06,1.96,2.6,3.41.54,1.45.7,3.05.49,4.79l-.15,1.08c-.27,1.83-.87,3.45-1.81,4.86-.93,1.41-2.13,2.51-3.61,3.29-1.47.78-3.09,1.17-4.85,1.17h-5.75ZM560.02,160.14l-2.48,14.32h1.99c1.8.01,3.29-.56,4.48-1.7,1.19-1.14,1.95-2.71,2.28-4.72.24-1.38.32-2.58.26-3.61-.08-1.32-.47-2.35-1.15-3.1-.69-.75-1.64-1.14-2.86-1.17h-2.52Z"/>
      <polygon points="604.53 177.21 601.18 177.21 604.63 157.36 607.98 157.36 604.53 177.21"/>
      <polygon points="651.05 168.35 643.15 168.35 642.08 174.46 651.33 174.46 650.85 177.21 638.24 177.21 641.67 157.36 654.2 157.36 653.71 160.14 644.57 160.14 643.61 165.62 651.53 165.62 651.05 168.35"/>
      <polygon points="698.45 177.21 695.19 177.21 688.98 162.99 686.52 177.21 683.15 177.21 686.6 157.36 689.86 157.36 696.06 171.64 698.54 157.36 701.9 157.36 698.45 177.21"/>
      <path d="M742.95,172c.2-1.31-.51-2.28-2.14-2.92l-1.1-.41c-2.05-.72-3.51-1.57-4.38-2.55-.86-.98-1.25-2.12-1.17-3.42.07-1.13.46-2.12,1.15-2.98.7-.86,1.61-1.52,2.75-1.98,1.14-.46,2.34-.68,3.63-.65,1.23.03,2.34.3,3.3.81.96.51,1.7,1.23,2.21,2.14.51.91.75,1.96.71,3.13h-3.35c.06-1.05-.17-1.85-.69-2.43-.52-.57-1.31-.87-2.37-.9-1.06-.02-1.96.23-2.69.75-.73.52-1.16,1.22-1.29,2.1-.18,1.15.59,2.06,2.32,2.73l1.02.37c2.08.74,3.54,1.62,4.36,2.62.83,1,1.19,2.19,1.09,3.57-.09,1.12-.46,2.09-1.1,2.92-.65.83-1.54,1.48-2.68,1.93-1.14.45-2.4.67-3.77.65-1.3,0-2.48-.28-3.54-.82-1.06-.54-1.87-1.28-2.43-2.23-.56-.95-.82-2.03-.78-3.24h3.37c-.07,1.14.2,2.01.83,2.62.63.61,1.53.92,2.7.94,1.09.02,2-.21,2.73-.7.73-.48,1.17-1.17,1.32-2.06"/>
      <polygon points="794.81 160.14 788.81 160.14 785.86 177.21 782.5 177.21 785.47 160.14 779.52 160.14 780.01 157.36 795.31 157.36 794.81 160.14"/>
      <g class="cls-6">
        <rect class="cls-2" x="213.16" y="57.34" width="84.63" height="77.83"/>
      </g>
      <g class="cls-9">
        <rect class="cls-5" x="299.18" y="59.04" width="62.62" height="74.43"/>
      </g>
      <g class="cls-8">
        <rect class="cls-4" x="364.78" y="59.04" width="86.44" height="74.43"/>
      </g>
      <polygon points="556.6 59.04 541.92 133.46 519.07 133.46 525.66 99.55 504.71 126.77 493.65 126.77 482.17 99.97 475.47 133.46 452.61 133.46 467.5 59.04 487.91 59.04 504.07 98.59 535.23 59.04 556.6 59.04"/>
      <path d="M608.28,120.49h-28.39l-7.44,12.97h-26.48l47.42-74.43h24.67l17.65,74.43h-24.99l-2.45-12.97ZM604.77,102.42l-3.62-19.03-10.95,19.03h14.57Z"/>
      <polygon points="728 59.04 713.12 133.46 692.49 133.46 671.12 98.8 664.21 133.46 639.75 133.46 654.64 59.04 675.27 59.04 696.64 93.7 703.55 59.04 728 59.04"/>
      <polygon points="813.49 59.04 798.61 133.46 777.98 133.46 756.61 98.8 749.7 133.46 725.24 133.46 740.13 59.04 760.75 59.04 782.13 93.7 789.04 59.04 813.49 59.04"/>
      <g class="cls-1">
        <rect class="cls-7" x="129.59" y="55.18" width="82.62" height="85.6"/>
      </g>
    </g>
  </g>
</svg>